{
  "extensionsUsed": [
    "KHR_materials_transmission",
    "KHR_materials_clearcoat",
    "KHR_materials_ior",
    "KHR_materials_specular",
    "KHR_materials_emissive_strength",
    "KHR_texture_transform"
  ],
  "accessors": [
    {
      "bufferView": 0,
      "componentType": 5126,
      "count": 38,
      "type": "VEC3",
      "max": [
        -16.976732,
        26.365213,
        47.755856
      ],
      "min": [
        -31.498404,
        5.435546,
        35.763195
      ]
    },
    {
      "bufferView": 1,
      "componentType": 5125,
      "count": 108,
      "type": "SCALAR",
      "max": [
        37.0
      ],
      "min": [
        0.0
      ]
    },
    {
      "bufferView": 2,
      "componentType": 5126,
      "count": 38,
      "type": "VEC3",
      "max": [
        0.86602974,
        -1.3177512E-06,
        -0.4999925
      ],
      "min": [
        -8.371461E-06,
        -0.25038117,
        -0.9685648
      ]
    },
    {
      "bufferView": 3,
      "componentType": 5126,
      "count": 38,
      "type": "VEC2",
      "max": [
        1.0,
        0.4124621
      ],
      "min": [
        0.0,
        0.24739103
      ]
    }
  ],
  "asset": {
    "version": "2.0"
  },
  "buffers": [
    {
      "uri": "data:application/octet-stream;base64,",
      "byteLength": 456
    },
    {
      "uri": "data:application/octet-stream;base64,",
      "byteLength": 432
    },
    {
      "uri": "data:application/octet-stream;base64,",
      "byteLength": 456
    },
    {
      "uri": "data:application/octet-stream;base64,",
      "byteLength": 304
    }
  ],
  "bufferViews": [
    {
      "buffer": 0,
      "byteLength": 456,
      "target": 34962
    },
    {
      "buffer": 1,
      "byteLength": 432,
      "target": 34963
    },
    {
      "buffer": 2,
      "byteLength": 456,
      "target": 34962
    },
    {
      "buffer": 3,
      "byteLength": 304,
      "target": 34962
    }
  ],
  "materials": [
    {
      "pbrMetallicRoughness": {
        "baseColorFactor": [
          0.0,
          0.0,
          0.0,
          1.0
        ]
      }
    }
  ],
  "meshes": [
    {
      "primitives": [
        {
          "attributes": {
            "POSITION": 0,
            "NORMAL": 2,
            "TEXCOORD_0": 3
          },
          "indices": 1,
          "material": 0
        }
      ]
    }
  ],
  "nodes": [
    {
      "mesh": 0
    }
  ],
  "samplers": [
    {
      "magFilter": 9729,
      "minFilter": 9729
    }
  ],
  "scene": 0,
  "scenes": [
    {
      "nodes": [
        0
      ],
      "extensions": {}
    }
  ],
  "extensions": {}
}