{
  "extensionsUsed": [
    "KHR_materials_transmission",
    "KHR_materials_clearcoat",
    "KHR_materials_ior",
    "KHR_materials_specular",
    "KHR_materials_emissive_strength",
    "KHR_texture_transform"
  ],
  "accessors": [
    {
      "bufferView": 0,
      "componentType": 5126,
      "count": 1139,
      "type": "VEC3",
      "max": [
        -15.189788,
        5.460946,
        67.519066
      ],
      "min": [
        -41.556835,
        5.4101467,
        41.15202
      ]
    },
    {
      "bufferView": 1,
      "componentType": 5125,
      "count": 6336,
      "type": "SCALAR",
      "max": [
        1138.0
      ],
      "min": [
        0.0
      ]
    },
    {
      "bufferView": 2,
      "componentType": 5126,
      "count": 1139,
      "type": "VEC3",
      "max": [
        0.9998906,
        1.0,
        0.9998905
      ],
      "min": [
        -0.9998906,
        -1.0,
        -0.9998905
      ]
    },
    {
      "bufferView": 3,
      "componentType": 5126,
      "count": 1139,
      "type": "VEC2",
      "max": [
        1.0,
        1.0
      ],
      "min": [
        0.0,
        0.0
      ]
    },
    {
      "bufferView": 4,
      "componentType": 5126,
      "count": 1139,
      "type": "VEC3",
      "max": [
        -18.314764,
        26.390615,
        62.106285
      ],
      "min": [
        -44.68181,
        26.339813,
        35.73924
      ]
    },
    {
      "bufferView": 5,
      "componentType": 5125,
      "count": 6336,
      "type": "SCALAR",
      "max": [
        1138.0
      ],
      "min": [
        0.0
      ]
    },
    {
      "bufferView": 6,
      "componentType": 5126,
      "count": 1139,
      "type": "VEC3",
      "max": [
        0.9998906,
        1.0,
        0.9998905
      ],
      "min": [
        -0.9998906,
        -1.0,
        -0.9998905
      ]
    },
    {
      "bufferView": 7,
      "componentType": 5126,
      "count": 1139,
      "type": "VEC2",
      "max": [
        1.0,
        1.0
      ],
      "min": [
        0.0,
        0.0
      ]
    },
    {
      "bufferView": 8,
      "componentType": 5126,
      "count": 6,
      "type": "VEC3",
      "max": [
        85.379486,
        26.365213,
        71.655975
      ],
      "min": [
        67.08861,
        5.435546,
        66.243195
      ]
    },
    {
      "bufferView": 9,
      "componentType": 5125,
      "count": 12,
      "type": "SCALAR",
      "max": [
        5.0
      ],
      "min": [
        0.0
      ]
    },
    {
      "bufferView": 10,
      "componentType": 5126,
      "count": 6,
      "type": "VEC3",
      "max": [
        0.0,
        -0.25038,
        -0.96814764
      ],
      "min": [
        0.0,
        -0.25038,
        -0.96814764
      ]
    },
    {
      "bufferView": 11,
      "componentType": 5126,
      "count": 6,
      "type": "VEC2",
      "max": [
        0.99019605,
        0.99019605
      ],
      "min": [
        0.009803922,
        0.009803922
      ]
    },
    {
      "bufferView": 12,
      "componentType": 5126,
      "count": 4,
      "type": "VEC3",
      "max": [
        103.433876,
        26.365213,
        89.76732
      ],
      "min": [
        93.65119,
        5.435546,
        72.823074
      ]
    },
    {
      "bufferView": 13,
      "componentType": 5125,
      "count": 6,
      "type": "SCALAR",
      "max": [
        3.0
      ],
      "min": [
        0.0
      ]
    },
    {
      "bufferView": 14,
      "componentType": 5126,
      "count": 4,
      "type": "VEC3",
      "max": [
        0.8660254,
        -3.899916E-06,
        -0.5
      ],
      "min": [
        0.8660254,
        -3.899916E-06,
        -0.5
      ]
    },
    {
      "bufferView": 15,
      "componentType": 5126,
      "count": 4,
      "type": "VEC2",
      "max": [
        0.99019605,
        0.99019605
      ],
      "min": [
        0.009803922,
        0.009803922
      ]
    },
    {
      "bufferView": 16,
      "componentType": 5126,
      "count": 194,
      "type": "VEC3",
      "max": [
        98.53773,
        26.365213,
        97.97366
      ],
      "min": [
        69.0965,
        5.435546,
        66.24464
      ]
    },
    {
      "bufferView": 17,
      "componentType": 5125,
      "count": 762,
      "type": "SCALAR",
      "max": [
        193.0
      ],
      "min": [
        0.0
      ]
    },
    {
      "bufferView": 18,
      "componentType": 5126,
      "count": 194,
      "type": "VEC3",
      "max": [
        0.9889223,
        0.2859207,
        0.9685648
      ],
      "min": [
        -0.9889223,
        -0.2859207,
        -0.9685648
      ]
    },
    {
      "bufferView": 19,
      "componentType": 5126,
      "count": 194,
      "type": "VEC2",
      "max": [
        0.5812196,
        0.99853516
      ],
      "min": [
        0.31840372,
        0.0
      ]
    },
    {
      "bufferView": 20,
      "componentType": 5126,
      "count": 64,
      "type": "VEC3",
      "max": [
        95.41274,
        26.365213,
        92.56089
      ],
      "min": [
        69.0965,
        26.365213,
        66.24464
      ]
    },
    {
      "bufferView": 21,
      "componentType": 5125,
      "count": 186,
      "type": "SCALAR",
      "max": [
        63.0
      ],
      "min": [
        0.0
      ]
    },
    {
      "bufferView": 22,
      "componentType": 5126,
      "count": 64,
      "type": "VEC3",
      "max": [
        0.0,
        1.0,
        0.0
      ],
      "min": [
        0.0,
        1.0,
        0.0
      ]
    },
    {
      "bufferView": 23,
      "componentType": 5126,
      "count": 64,
      "type": "VEC2",
      "max": [
        0.31693888,
        0.8184037
      ],
      "min": [
        0.0,
        0.5
      ]
    },
    {
      "bufferView": 24,
      "componentType": 5126,
      "count": 64,
      "type": "VEC3",
      "max": [
        98.53773,
        5.435546,
        97.97366
      ],
      "min": [
        72.22147,
        5.435546,
        71.65742
      ]
    },
    {
      "bufferView": 25,
      "componentType": 5125,
      "count": 186,
      "type": "SCALAR",
      "max": [
        63.0
      ],
      "min": [
        0.0
      ]
    },
    {
      "bufferView": 26,
      "componentType": 5126,
      "count": 64,
      "type": "VEC3",
      "max": [
        0.0,
        -1.0,
        0.0
      ],
      "min": [
        0.0,
        -1.0,
        0.0
      ]
    },
    {
      "bufferView": 27,
      "componentType": 5126,
      "count": 64,
      "type": "VEC2",
      "max": [
        0.31693888,
        0.31840372
      ],
      "min": [
        0.0,
        0.0
      ]
    }
  ],
  "asset": {
    "version": "2.0"
  },
  "buffers": [
    {
      "uri": "data:application/octet-stream;base64,",
      "byteLength": 13668
    },
    {
      "uri": "data:application/octet-stream;base64,",
      "byteLength": 25344
    },
    {
      "uri": "data:application/octet-stream;base64,",
      "byteLength": 13668
    },
    {
      "uri": "data:application/octet-stream;base64,",
      "byteLength": 9112
    },
    {
      "uri": "data:application/octet-stream;base64,",
      "byteLength": 13668
    },
    {
      "uri": "data:application/octet-stream;base64,",
      "byteLength": 25344
    },
    {
      "uri": "data:application/octet-stream;base64,",
      "byteLength": 13668
    },
    {
      "uri": "data:application/octet-stream;base64,",
      "byteLength": 9112
    },
    {
      "uri": "data:application/octet-stream;base64,",
      "byteLength": 72
    },
    {
      "uri": "data:application/octet-stream;base64,",
      "byteLength": 48
    },
    {
      "uri": "data:application/octet-stream;base64,",
      "byteLength": 72
    },
    {
      "uri": "data:application/octet-stream;base64,",
      "byteLength": 48
    },
    {
      "uri": "data:application/octet-stream;base64,",
      "byteLength": 48
    },
    {
      "uri": "data:application/octet-stream;base64,",
      "byteLength": 24
    },
    {
      "uri": "data:application/octet-stream;base64,",
      "byteLength": 48
    },
    {
      "uri": "data:application/octet-stream;base64,",
      "byteLength": 32
    },
    {
      "uri": "data:application/octet-stream;base64,",
      "byteLength": 2328
    },
    {
      "uri": "data:application/octet-stream;base64,",
      "byteLength": 3048
    },
    {
      "uri": "data:application/octet-stream;base64,",
      "byteLength": 2328
    },
    {
      "uri": "data:application/octet-stream;base64,",
      "byteLength": 1552
    },
    {
      "uri": "data:application/octet-stream;base64,",
      "byteLength": 768
    },
    {
      "uri": "data:application/octet-stream;base64,",
      "byteLength": 744
    },
    {
      "uri": "data:application/octet-stream;base64,",
      "byteLength": 768
    },
    {
      "uri": "data:application/octet-stream;base64,",
      "byteLength": 512
    },
    {
      "uri": "data:application/octet-stream;base64,",
      "byteLength": 768
    },
    {
      "uri": "data:application/octet-stream;base64,",
      "byteLength": 744
    },
    {
      "uri": "data:application/octet-stream;base64,",
      "byteLength": 768
    },
    {
      "uri": "data:application/octet-stream;base64,",
      "byteLength": 512
    }
  ],
  "bufferViews": [
    {
      "buffer": 0,
      "byteLength": 13668,
      "target": 34962
    },
    {
      "buffer": 1,
      "byteLength": 25344,
      "target": 34963
    },
    {
      "buffer": 2,
      "byteLength": 13668,
      "target": 34962
    },
    {
      "buffer": 3,
      "byteLength": 9112,
      "target": 34962
    },
    {
      "buffer": 4,
      "byteLength": 13668,
      "target": 34962
    },
    {
      "buffer": 5,
      "byteLength": 25344,
      "target": 34963
    },
    {
      "buffer": 6,
      "byteLength": 13668,
      "target": 34962
    },
    {
      "buffer": 7,
      "byteLength": 9112,
      "target": 34962
    },
    {
      "buffer": 8,
      "byteLength": 72,
      "target": 34962
    },
    {
      "buffer": 9,
      "byteLength": 48,
      "target": 34963
    },
    {
      "buffer": 10,
      "byteLength": 72,
      "target": 34962
    },
    {
      "buffer": 11,
      "byteLength": 48,
      "target": 34962
    },
    {
      "buffer": 12,
      "byteLength": 48,
      "target": 34962
    },
    {
      "buffer": 13,
      "byteLength": 24,
      "target": 34963
    },
    {
      "buffer": 14,
      "byteLength": 48,
      "target": 34962
    },
    {
      "buffer": 15,
      "byteLength": 32,
      "target": 34962
    },
    {
      "buffer": 16,
      "byteLength": 2328,
      "target": 34962
    },
    {
      "buffer": 17,
      "byteLength": 3048,
      "target": 34963
    },
    {
      "buffer": 18,
      "byteLength": 2328,
      "target": 34962
    },
    {
      "buffer": 19,
      "byteLength": 1552,
      "target": 34962
    },
    {
      "buffer": 20,
      "byteLength": 768,
      "target": 34962
    },
    {
      "buffer": 21,
      "byteLength": 744,
      "target": 34963
    },
    {
      "buffer": 22,
      "byteLength": 768,
      "target": 34962
    },
    {
      "buffer": 23,
      "byteLength": 512,
      "target": 34962
    },
    {
      "buffer": 24,
      "byteLength": 768,
      "target": 34962
    },
    {
      "buffer": 25,
      "byteLength": 744,
      "target": 34963
    },
    {
      "buffer": 26,
      "byteLength": 768,
      "target": 34962
    },
    {
      "buffer": 27,
      "byteLength": 512,
      "target": 34962
    }
  ],
  "materials": [
    {
      "pbrMetallicRoughness": {
        "baseColorFactor": [
          0.0,
          0.0,
          0.0,
          1.0
        ]
      }
    }
  ],
  "meshes": [
    {
      "primitives": [
        {
          "attributes": {
            "POSITION": 0,
            "NORMAL": 2,
            "TEXCOORD_0": 3
          },
          "indices": 1,
          "material": 0
        }
      ]
    },
    {
      "primitives": [
        {
          "attributes": {
            "POSITION": 4,
            "NORMAL": 6,
            "TEXCOORD_0": 7
          },
          "indices": 5,
          "material": 0
        }
      ]
    },
    {
      "primitives": [
        {
          "attributes": {
            "POSITION": 8,
            "NORMAL": 10,
            "TEXCOORD_0": 11
          },
          "indices": 9,
          "material": 0
        }
      ]
    },
    {
      "primitives": [
        {
          "attributes": {
            "POSITION": 12,
            "NORMAL": 14,
            "TEXCOORD_0": 15
          },
          "indices": 13,
          "material": 0
        }
      ]
    },
    {
      "primitives": [
        {
          "attributes": {
            "POSITION": 16,
            "NORMAL": 18,
            "TEXCOORD_0": 19
          },
          "indices": 17,
          "material": 0
        },
        {
          "attributes": {
            "POSITION": 20,
            "NORMAL": 22,
            "TEXCOORD_0": 23
          },
          "indices": 21,
          "material": 0
        },
        {
          "attributes": {
            "POSITION": 24,
            "NORMAL": 26,
            "TEXCOORD_0": 27
          },
          "indices": 25,
          "material": 0
        }
      ]
    }
  ],
  "nodes": [
    {
      "mesh": 0
    },
    {
      "mesh": 1
    },
    {
      "mesh": 2
    },
    {
      "mesh": 3
    },
    {
      "mesh": 4
    }
  ],
  "samplers": [
    {
      "magFilter": 9729,
      "minFilter": 9729
    }
  ],
  "scene": 0,
  "scenes": [
    {
      "nodes": [
        0,
        1,
        2,
        3,
        4
      ],
      "extensions": {}
    }
  ],
  "extensions": {}
}