{
  "extensionsUsed": [
    "KHR_materials_transmission",
    "KHR_materials_clearcoat",
    "KHR_materials_ior",
    "KHR_materials_specular",
    "KHR_materials_emissive_strength",
    "KHR_texture_transform"
  ],
  "accessors": [
    {
      "bufferView": 0,
      "componentType": 5126,
      "count": 194,
      "type": "VEC3",
      "max": [
        -15.215184,
        26.365213,
        67.49367
      ],
      "min": [
        -44.656414,
        5.435546,
        35.764637
      ]
    },
    {
      "bufferView": 1,
      "componentType": 5125,
      "count": 762,
      "type": "SCALAR",
      "max": [
        193.0
      ],
      "min": [
        0.0
      ]
    },
    {
      "bufferView": 2,
      "componentType": 5126,
      "count": 194,
      "type": "VEC3",
      "max": [
        0.9889223,
        0.2859207,
        0.9685648
      ],
      "min": [
        -0.9889223,
        -0.2859207,
        -0.9685648
      ]
    },
    {
      "bufferView": 3,
      "componentType": 5126,
      "count": 194,
      "type": "VEC2",
      "max": [
        0.5812196,
        0.99853516
      ],
      "min": [
        0.31840372,
        0.0
      ]
    },
    {
      "bufferView": 4,
      "componentType": 5126,
      "count": 64,
      "type": "VEC3",
      "max": [
        -18.340166,
        26.365213,
        62.08089
      ],
      "min": [
        -44.656414,
        26.365213,
        35.764637
      ]
    },
    {
      "bufferView": 5,
      "componentType": 5125,
      "count": 186,
      "type": "SCALAR",
      "max": [
        63.0
      ],
      "min": [
        0.0
      ]
    },
    {
      "bufferView": 6,
      "componentType": 5126,
      "count": 64,
      "type": "VEC3",
      "max": [
        0.0,
        1.0,
        0.0
      ],
      "min": [
        0.0,
        1.0,
        0.0
      ]
    },
    {
      "bufferView": 7,
      "componentType": 5126,
      "count": 64,
      "type": "VEC2",
      "max": [
        0.31693888,
        0.8184037
      ],
      "min": [
        0.0,
        0.5
      ]
    },
    {
      "bufferView": 8,
      "componentType": 5126,
      "count": 64,
      "type": "VEC3",
      "max": [
        -15.215184,
        5.435546,
        67.49367
      ],
      "min": [
        -41.531437,
        5.435546,
        41.177418
      ]
    },
    {
      "bufferView": 9,
      "componentType": 5125,
      "count": 186,
      "type": "SCALAR",
      "max": [
        63.0
      ],
      "min": [
        0.0
      ]
    },
    {
      "bufferView": 10,
      "componentType": 5126,
      "count": 64,
      "type": "VEC3",
      "max": [
        0.0,
        -1.0,
        0.0
      ],
      "min": [
        0.0,
        -1.0,
        0.0
      ]
    },
    {
      "bufferView": 11,
      "componentType": 5126,
      "count": 64,
      "type": "VEC2",
      "max": [
        0.31693888,
        0.31840372
      ],
      "min": [
        0.0,
        0.0
      ]
    }
  ],
  "asset": {
    "version": "2.0"
  },
  "buffers": [
    {
      "uri": "data:application/octet-stream;base64,",
      "byteLength": 2328
    },
    {
      "uri": "data:application/octet-stream;base64,",
      "byteLength": 3048
    },
    {
      "uri": "data:application/octet-stream;base64,",
      "byteLength": 2328
    },
    {
      "uri": "data:application/octet-stream;base64,",
      "byteLength": 1552
    },
    {
      "uri": "data:application/octet-stream;base64,",
      "byteLength": 768
    },
    {
      "uri": "data:application/octet-stream;base64,",
      "byteLength": 744
    },
    {
      "uri": "data:application/octet-stream;base64,",
      "byteLength": 768
    },
    {
      "uri": "data:application/octet-stream;base64,",
      "byteLength": 512
    },
    {
      "uri": "data:application/octet-stream;base64,",
      "byteLength": 768
    },
    {
      "uri": "data:application/octet-stream;base64,",
      "byteLength": 744
    },
    {
      "uri": "data:application/octet-stream;base64,",
      "byteLength": 768
    },
    {
      "uri": "data:application/octet-stream;base64,",
      "byteLength": 512
    }
  ],
  "bufferViews": [
    {
      "buffer": 0,
      "byteLength": 2328,
      "target": 34962
    },
    {
      "buffer": 1,
      "byteLength": 3048,
      "target": 34963
    },
    {
      "buffer": 2,
      "byteLength": 2328,
      "target": 34962
    },
    {
      "buffer": 3,
      "byteLength": 1552,
      "target": 34962
    },
    {
      "buffer": 4,
      "byteLength": 768,
      "target": 34962
    },
    {
      "buffer": 5,
      "byteLength": 744,
      "target": 34963
    },
    {
      "buffer": 6,
      "byteLength": 768,
      "target": 34962
    },
    {
      "buffer": 7,
      "byteLength": 512,
      "target": 34962
    },
    {
      "buffer": 8,
      "byteLength": 768,
      "target": 34962
    },
    {
      "buffer": 9,
      "byteLength": 744,
      "target": 34963
    },
    {
      "buffer": 10,
      "byteLength": 768,
      "target": 34962
    },
    {
      "buffer": 11,
      "byteLength": 512,
      "target": 34962
    }
  ],
  "materials": [
    {
      "pbrMetallicRoughness": {
        "baseColorFactor": [
          0.0,
          0.0,
          0.0,
          1.0
        ]
      }
    }
  ],
  "meshes": [
    {
      "primitives": [
        {
          "attributes": {
            "POSITION": 0,
            "NORMAL": 2,
            "TEXCOORD_0": 3
          },
          "indices": 1,
          "material": 0
        },
        {
          "attributes": {
            "POSITION": 4,
            "NORMAL": 6,
            "TEXCOORD_0": 7
          },
          "indices": 5,
          "material": 0
        },
        {
          "attributes": {
            "POSITION": 8,
            "NORMAL": 10,
            "TEXCOORD_0": 11
          },
          "indices": 9,
          "material": 0
        }
      ]
    }
  ],
  "nodes": [
    {
      "mesh": 0
    }
  ],
  "samplers": [
    {
      "magFilter": 9729,
      "minFilter": 9729
    }
  ],
  "scene": 0,
  "scenes": [
    {
      "nodes": [
        0
      ],
      "extensions": {}
    }
  ],
  "extensions": {}
}