{
  "extensionsUsed": [
    "KHR_materials_transmission",
    "KHR_materials_clearcoat",
    "KHR_materials_ior",
    "KHR_materials_specular",
    "KHR_materials_emissive_strength",
    "KHR_texture_transform"
  ],
  "accessors": [
    {
      "bufferView": 0,
      "componentType": 5126,
      "count": 20,
      "type": "VEC3",
      "max": [
        -28.373425,
        9.169462,
        41.47107
      ],
      "min": [
        -28.919535,
        5.435546,
        40.230057
      ]
    },
    {
      "bufferView": 1,
      "componentType": 5125,
      "count": 81,
      "type": "SCALAR",
      "max": [
        19.0
      ],
      "min": [
        0.0
      ]
    },
    {
      "bufferView": 2,
      "componentType": 5126,
      "count": 20,
      "type": "VEC3",
      "max": [
        0.98971325,
        0.13850865,
        -0.035820685
      ],
      "min": [
        0.9897132,
        0.13850726,
        -0.035824865
      ]
    },
    {
      "bufferView": 3,
      "componentType": 5126,
      "count": 20,
      "type": "VEC2",
      "max": [
        0.2704493,
        0.5815578
      ],
      "min": [
        0.05226534,
        0.564136
      ]
    },
    {
      "bufferView": 4,
      "componentType": 5126,
      "count": 4,
      "type": "VEC3",
      "max": [
        -28.373425,
        5.5118623,
        41.47107
      ],
      "min": [
        -43.53933,
        5.435546,
        41.175976
      ]
    },
    {
      "bufferView": 5,
      "componentType": 5125,
      "count": 6,
      "type": "SCALAR",
      "max": [
        3.0
      ],
      "min": [
        0.0
      ]
    },
    {
      "bufferView": 6,
      "componentType": 5126,
      "count": 4,
      "type": "VEC3",
      "max": [
        -1.6493403E-16,
        -0.96814764,
        0.25038
      ],
      "min": [
        -3.8731616E-16,
        -0.96814764,
        0.25038
      ]
    },
    {
      "bufferView": 7,
      "componentType": 5126,
      "count": 4,
      "type": "VEC2",
      "max": [
        0.919119,
        0.4405238
      ],
      "min": [
        0.05226534,
        0.42310202
      ]
    },
    {
      "bufferView": 8,
      "componentType": 5126,
      "count": 6,
      "type": "VEC3",
      "max": [
        -43.53933,
        21.564663,
        41.47107
      ],
      "min": [
        -43.53933,
        5.435546,
        37.024437
      ]
    },
    {
      "bufferView": 9,
      "componentType": 5125,
      "count": 12,
      "type": "SCALAR",
      "max": [
        5.0
      ],
      "min": [
        0.0
      ]
    },
    {
      "bufferView": 10,
      "componentType": 5126,
      "count": 6,
      "type": "VEC3",
      "max": [
        -1.0,
        2.1497196E-15,
        -4.4476424E-16
      ],
      "min": [
        -1.0,
        -5.396452E-15,
        -2.8072364E-14
      ]
    },
    {
      "bufferView": 11,
      "componentType": 5126,
      "count": 6,
      "type": "VEC2",
      "max": [
        0.99853516,
        0.8636258
      ],
      "min": [
        0.05226534,
        0.84620404
      ]
    },
    {
      "bufferView": 12,
      "componentType": 5126,
      "count": 19,
      "type": "VEC3",
      "max": [
        -30.77024,
        21.564663,
        37.31953
      ],
      "min": [
        -43.53933,
        21.488346,
        37.024437
      ]
    },
    {
      "bufferView": 13,
      "componentType": 5125,
      "count": 78,
      "type": "SCALAR",
      "max": [
        18.0
      ],
      "min": [
        0.0
      ]
    },
    {
      "bufferView": 14,
      "componentType": 5126,
      "count": 19,
      "type": "VEC3",
      "max": [
        -8.52477E-16,
        0.96814764,
        -0.25038
      ],
      "min": [
        -1.4442833E-08,
        0.9681475,
        -0.25038058
      ]
    },
    {
      "bufferView": 15,
      "componentType": 5126,
      "count": 19,
      "type": "VEC2",
      "max": [
        0.050800495,
        0.7298562
      ],
      "min": [
        0.03484356,
        0.0
      ]
    },
    {
      "bufferView": 16,
      "componentType": 5126,
      "count": 34,
      "type": "VEC3",
      "max": [
        -19.373554,
        21.564663,
        43.75672
      ],
      "min": [
        -30.770243,
        21.488346,
        37.024437
      ]
    },
    {
      "bufferView": 17,
      "componentType": 5125,
      "count": 96,
      "type": "SCALAR",
      "max": [
        33.0
      ],
      "min": [
        0.0
      ]
    },
    {
      "bufferView": 18,
      "componentType": 5126,
      "count": 34,
      "type": "VEC3",
      "max": [
        0.079030566,
        1.0,
        0.0061371312
      ],
      "min": [
        -2.1650126E-06,
        0.9681422,
        -0.25038058
      ]
    },
    {
      "bufferView": 19,
      "componentType": 5126,
      "count": 34,
      "type": "VEC2",
      "max": [
        0.8398138,
        0.15845579
      ],
      "min": [
        0.05226534,
        0.141034
      ]
    },
    {
      "bufferView": 20,
      "componentType": 5126,
      "count": 19,
      "type": "VEC3",
      "max": [
        -19.373554,
        26.365213,
        43.75672
      ],
      "min": [
        -20.365675,
        21.488346,
        42.343075
      ]
    },
    {
      "bufferView": 21,
      "componentType": 5125,
      "count": 78,
      "type": "SCALAR",
      "max": [
        18.0
      ],
      "min": [
        0.0
      ]
    },
    {
      "bufferView": 22,
      "componentType": 5126,
      "count": 19,
      "type": "VEC3",
      "max": [
        -0.47909132,
        -0.28613746,
        -0.82981503
      ],
      "min": [
        -0.47909525,
        -0.2861377,
        -0.82981735
      ]
    },
    {
      "bufferView": 23,
      "componentType": 5126,
      "count": 19,
      "type": "VEC2",
      "max": [
        0.34318128,
        0.7225918
      ],
      "min": [
        0.05226534,
        0.70517004
      ]
    },
    {
      "bufferView": 24,
      "componentType": 5126,
      "count": 4,
      "type": "VEC3",
      "max": [
        -13.444016,
        26.365213,
        54.026943
      ],
      "min": [
        -20.365675,
        26.365213,
        42.343075
      ]
    },
    {
      "bufferView": 25,
      "componentType": 5125,
      "count": 6,
      "type": "SCALAR",
      "max": [
        3.0
      ],
      "min": [
        0.0
      ]
    },
    {
      "bufferView": 26,
      "componentType": 5126,
      "count": 4,
      "type": "VEC3",
      "max": [
        3.3774263E-06,
        1.0,
        -1.949958E-06
      ],
      "min": [
        3.3774263E-06,
        1.0,
        -1.949958E-06
      ]
    },
    {
      "bufferView": 27,
      "componentType": 5126,
      "count": 4,
      "type": "VEC2",
      "max": [
        0.8133474,
        0.01742178
      ],
      "min": [
        0.05226534,
        0.0
      ]
    },
    {
      "bufferView": 28,
      "componentType": 5126,
      "count": 6,
      "type": "VEC3",
      "max": [
        -13.444016,
        26.365213,
        54.026978
      ],
      "min": [
        -13.708039,
        9.093146,
        53.874542
      ]
    },
    {
      "bufferView": 29,
      "componentType": 5125,
      "count": 12,
      "type": "SCALAR",
      "max": [
        5.0
      ],
      "min": [
        0.0
      ]
    },
    {
      "bufferView": 30,
      "componentType": 5126,
      "count": 6,
      "type": "VEC3",
      "max": [
        0.5,
        4.4917225E-16,
        0.8660254
      ],
      "min": [
        0.5,
        4.491583E-16,
        0.8660254
      ]
    },
    {
      "bufferView": 31,
      "componentType": 5126,
      "count": 6,
      "type": "VEC2",
      "max": [
        0.015956936,
        0.9857732
      ],
      "min": [
        0.0,
        0.0
      ]
    },
    {
      "bufferView": 32,
      "componentType": 5126,
      "count": 20,
      "type": "VEC3",
      "max": [
        -13.444075,
        9.093147,
        54.026978
      ],
      "min": [
        -17.786812,
        9.093146,
        46.809937
      ]
    },
    {
      "bufferView": 33,
      "componentType": 5125,
      "count": 81,
      "type": "SCALAR",
      "max": [
        19.0
      ],
      "min": [
        0.0
      ]
    },
    {
      "bufferView": 34,
      "componentType": 5126,
      "count": 20,
      "type": "VEC3",
      "max": [
        -2.2351962E-06,
        -1.0,
        1.9917352E-06
      ],
      "min": [
        -3.3774263E-06,
        -1.0,
        1.3044169E-06
      ]
    },
    {
      "bufferView": 35,
      "componentType": 5126,
      "count": 20,
      "type": "VEC2",
      "max": [
        0.033378717,
        0.46626946
      ],
      "min": [
        0.01742178,
        0.0
      ]
    },
    {
      "bufferView": 36,
      "componentType": 5126,
      "count": 51,
      "type": "VEC3",
      "max": [
        -17.522846,
        9.169462,
        46.962334
      ],
      "min": [
        -28.919535,
        9.093146,
        40.230057
      ]
    },
    {
      "bufferView": 37,
      "componentType": 5125,
      "count": 192,
      "type": "SCALAR",
      "max": [
        50.0
      ],
      "min": [
        0.0
      ]
    },
    {
      "bufferView": 38,
      "componentType": 5126,
      "count": 51,
      "type": "VEC3",
      "max": [
        2.1650126E-06,
        -0.9681422,
        0.25038058
      ],
      "min": [
        -0.079030566,
        -1.0,
        -0.0061371312
      ]
    },
    {
      "bufferView": 39,
      "componentType": 5126,
      "count": 51,
      "type": "VEC2",
      "max": [
        0.8398138,
        0.2994898
      ],
      "min": [
        0.05226534,
        0.282068
      ]
    }
  ],
  "asset": {
    "version": "2.0"
  },
  "buffers": [
    {
      "uri": "data:application/octet-stream;base64,",
      "byteLength": 240
    },
    {
      "uri": "data:application/octet-stream;base64,",
      "byteLength": 324
    },
    {
      "uri": "data:application/octet-stream;base64,",
      "byteLength": 240
    },
    {
      "uri": "data:application/octet-stream;base64,",
      "byteLength": 160
    },
    {
      "uri": "data:application/octet-stream;base64,",
      "byteLength": 48
    },
    {
      "uri": "data:application/octet-stream;base64,",
      "byteLength": 24
    },
    {
      "uri": "data:application/octet-stream;base64,",
      "byteLength": 48
    },
    {
      "uri": "data:application/octet-stream;base64,",
      "byteLength": 32
    },
    {
      "uri": "data:application/octet-stream;base64,",
      "byteLength": 72
    },
    {
      "uri": "data:application/octet-stream;base64,",
      "byteLength": 48
    },
    {
      "uri": "data:application/octet-stream;base64,",
      "byteLength": 72
    },
    {
      "uri": "data:application/octet-stream;base64,",
      "byteLength": 48
    },
    {
      "uri": "data:application/octet-stream;base64,",
      "byteLength": 228
    },
    {
      "uri": "data:application/octet-stream;base64,",
      "byteLength": 312
    },
    {
      "uri": "data:application/octet-stream;base64,",
      "byteLength": 228
    },
    {
      "uri": "data:application/octet-stream;base64,",
      "byteLength": 152
    },
    {
      "uri": "data:application/octet-stream;base64,",
      "byteLength": 408
    },
    {
      "uri": "data:application/octet-stream;base64,",
      "byteLength": 384
    },
    {
      "uri": "data:application/octet-stream;base64,",
      "byteLength": 408
    },
    {
      "uri": "data:application/octet-stream;base64,",
      "byteLength": 272
    },
    {
      "uri": "data:application/octet-stream;base64,",
      "byteLength": 228
    },
    {
      "uri": "data:application/octet-stream;base64,",
      "byteLength": 312
    },
    {
      "uri": "data:application/octet-stream;base64,",
      "byteLength": 228
    },
    {
      "uri": "data:application/octet-stream;base64,",
      "byteLength": 152
    },
    {
      "uri": "data:application/octet-stream;base64,",
      "byteLength": 48
    },
    {
      "uri": "data:application/octet-stream;base64,",
      "byteLength": 24
    },
    {
      "uri": "data:application/octet-stream;base64,",
      "byteLength": 48
    },
    {
      "uri": "data:application/octet-stream;base64,",
      "byteLength": 32
    },
    {
      "uri": "data:application/octet-stream;base64,",
      "byteLength": 72
    },
    {
      "uri": "data:application/octet-stream;base64,",
      "byteLength": 48
    },
    {
      "uri": "data:application/octet-stream;base64,",
      "byteLength": 72
    },
    {
      "uri": "data:application/octet-stream;base64,",
      "byteLength": 48
    },
    {
      "uri": "data:application/octet-stream;base64,",
      "byteLength": 240
    },
    {
      "uri": "data:application/octet-stream;base64,",
      "byteLength": 324
    },
    {
      "uri": "data:application/octet-stream;base64,",
      "byteLength": 240
    },
    {
      "uri": "data:application/octet-stream;base64,",
      "byteLength": 160
    },
    {
      "uri": "data:application/octet-stream;base64,",
      "byteLength": 612
    },
    {
      "uri": "data:application/octet-stream;base64,",
      "byteLength": 768
    },
    {
      "uri": "data:application/octet-stream;base64,",
      "byteLength": 612
    },
    {
      "uri": "data:application/octet-stream;base64,",
      "byteLength": 408
    }
  ],
  "bufferViews": [
    {
      "buffer": 0,
      "byteLength": 240,
      "target": 34962
    },
    {
      "buffer": 1,
      "byteLength": 324,
      "target": 34963
    },
    {
      "buffer": 2,
      "byteLength": 240,
      "target": 34962
    },
    {
      "buffer": 3,
      "byteLength": 160,
      "target": 34962
    },
    {
      "buffer": 4,
      "byteLength": 48,
      "target": 34962
    },
    {
      "buffer": 5,
      "byteLength": 24,
      "target": 34963
    },
    {
      "buffer": 6,
      "byteLength": 48,
      "target": 34962
    },
    {
      "buffer": 7,
      "byteLength": 32,
      "target": 34962
    },
    {
      "buffer": 8,
      "byteLength": 72,
      "target": 34962
    },
    {
      "buffer": 9,
      "byteLength": 48,
      "target": 34963
    },
    {
      "buffer": 10,
      "byteLength": 72,
      "target": 34962
    },
    {
      "buffer": 11,
      "byteLength": 48,
      "target": 34962
    },
    {
      "buffer": 12,
      "byteLength": 228,
      "target": 34962
    },
    {
      "buffer": 13,
      "byteLength": 312,
      "target": 34963
    },
    {
      "buffer": 14,
      "byteLength": 228,
      "target": 34962
    },
    {
      "buffer": 15,
      "byteLength": 152,
      "target": 34962
    },
    {
      "buffer": 16,
      "byteLength": 408,
      "target": 34962
    },
    {
      "buffer": 17,
      "byteLength": 384,
      "target": 34963
    },
    {
      "buffer": 18,
      "byteLength": 408,
      "target": 34962
    },
    {
      "buffer": 19,
      "byteLength": 272,
      "target": 34962
    },
    {
      "buffer": 20,
      "byteLength": 228,
      "target": 34962
    },
    {
      "buffer": 21,
      "byteLength": 312,
      "target": 34963
    },
    {
      "buffer": 22,
      "byteLength": 228,
      "target": 34962
    },
    {
      "buffer": 23,
      "byteLength": 152,
      "target": 34962
    },
    {
      "buffer": 24,
      "byteLength": 48,
      "target": 34962
    },
    {
      "buffer": 25,
      "byteLength": 24,
      "target": 34963
    },
    {
      "buffer": 26,
      "byteLength": 48,
      "target": 34962
    },
    {
      "buffer": 27,
      "byteLength": 32,
      "target": 34962
    },
    {
      "buffer": 28,
      "byteLength": 72,
      "target": 34962
    },
    {
      "buffer": 29,
      "byteLength": 48,
      "target": 34963
    },
    {
      "buffer": 30,
      "byteLength": 72,
      "target": 34962
    },
    {
      "buffer": 31,
      "byteLength": 48,
      "target": 34962
    },
    {
      "buffer": 32,
      "byteLength": 240,
      "target": 34962
    },
    {
      "buffer": 33,
      "byteLength": 324,
      "target": 34963
    },
    {
      "buffer": 34,
      "byteLength": 240,
      "target": 34962
    },
    {
      "buffer": 35,
      "byteLength": 160,
      "target": 34962
    },
    {
      "buffer": 36,
      "byteLength": 612,
      "target": 34962
    },
    {
      "buffer": 37,
      "byteLength": 768,
      "target": 34963
    },
    {
      "buffer": 38,
      "byteLength": 612,
      "target": 34962
    },
    {
      "buffer": 39,
      "byteLength": 408,
      "target": 34962
    }
  ],
  "materials": [
    {
      "pbrMetallicRoughness": {
        "baseColorFactor": [
          0.0,
          0.0,
          0.0,
          1.0
        ]
      }
    }
  ],
  "meshes": [
    {
      "primitives": [
        {
          "attributes": {
            "POSITION": 0,
            "NORMAL": 2,
            "TEXCOORD_0": 3
          },
          "indices": 1,
          "material": 0
        },
        {
          "attributes": {
            "POSITION": 4,
            "NORMAL": 6,
            "TEXCOORD_0": 7
          },
          "indices": 5,
          "material": 0
        },
        {
          "attributes": {
            "POSITION": 8,
            "NORMAL": 10,
            "TEXCOORD_0": 11
          },
          "indices": 9,
          "material": 0
        },
        {
          "attributes": {
            "POSITION": 12,
            "NORMAL": 14,
            "TEXCOORD_0": 15
          },
          "indices": 13,
          "material": 0
        },
        {
          "attributes": {
            "POSITION": 16,
            "NORMAL": 18,
            "TEXCOORD_0": 19
          },
          "indices": 17,
          "material": 0
        },
        {
          "attributes": {
            "POSITION": 20,
            "NORMAL": 22,
            "TEXCOORD_0": 23
          },
          "indices": 21,
          "material": 0
        },
        {
          "attributes": {
            "POSITION": 24,
            "NORMAL": 26,
            "TEXCOORD_0": 27
          },
          "indices": 25,
          "material": 0
        },
        {
          "attributes": {
            "POSITION": 28,
            "NORMAL": 30,
            "TEXCOORD_0": 31
          },
          "indices": 29,
          "material": 0
        },
        {
          "attributes": {
            "POSITION": 32,
            "NORMAL": 34,
            "TEXCOORD_0": 35
          },
          "indices": 33,
          "material": 0
        },
        {
          "attributes": {
            "POSITION": 36,
            "NORMAL": 38,
            "TEXCOORD_0": 39
          },
          "indices": 37,
          "material": 0
        }
      ]
    }
  ],
  "nodes": [
    {
      "mesh": 0
    }
  ],
  "samplers": [
    {
      "magFilter": 9729,
      "minFilter": 9729
    }
  ],
  "scene": 0,
  "scenes": [
    {
      "nodes": [
        0
      ],
      "extensions": {}
    }
  ],
  "extensions": {}
}